<svg xmlns="http://www.w3.org/2000/svg" width="1024" height="1024" viewBox="0 0 1024 1024">
  <defs>
    <linearGradient id="bg" x1="192" y1="96" x2="830" y2="928" gradientUnits="userSpaceOnUse">
      <stop offset="0" stop-color="#172945"/>
      <stop offset="0.55" stop-color="#071222"/>
      <stop offset="1" stop-color="#050a12"/>
    </linearGradient>
    <linearGradient id="teal" x1="298" y1="204" x2="730" y2="542" gradientUnits="userSpaceOnUse">
      <stop offset="0" stop-color="#26e9ff"/>
      <stop offset="1" stop-color="#5cf1b6"/>
    </linearGradient>
    <linearGradient id="title" x1="210" y1="674" x2="814" y2="674" gradientUnits="userSpaceOnUse">
      <stop offset="0" stop-color="#ffffff"/>
      <stop offset="0.5" stop-color="#d9e4ec"/>
      <stop offset="1" stop-color="#ffffff"/>
    </linearGradient>
    <radialGradient id="glow" cx="50%" cy="36%" r="54%">
      <stop offset="0" stop-color="#2eefff" stop-opacity="0.24"/>
      <stop offset="0.58" stop-color="#1bcdd1" stop-opacity="0.07"/>
      <stop offset="1" stop-color="#06111f" stop-opacity="0"/>
    </radialGradient>
  </defs>

  <rect width="1024" height="1024" fill="#000"/>
  <rect x="106" y="72" width="812" height="836" rx="190" fill="url(#bg)" stroke="#243553" stroke-width="4"/>
  <rect x="128" y="94" width="768" height="792" rx="168" fill="url(#glow)"/>

  <g transform="translate(232 140) scale(0.55)">
    <g fill="none" stroke="url(#teal)" stroke-width="18" stroke-linecap="square" stroke-linejoin="round">
      <path d="M253 386v-46c0-28 15-54 40-68l180-104"/>
      <path d="M551 168l180 104c25 14 40 40 40 68v46"/>
      <path d="M253 485v135c0 32 17 62 46 78l38 22"/>
      <path d="M771 485v135c0 32-17 62-46 78l-38 22"/>
      <path d="M390 763l79 45c13 7 28 11 43 11h31v67l86-67h24c15 0 30-4 43-11l79-45"/>
    </g>
    <g fill="none" stroke="url(#teal)" stroke-width="18">
      <circle cx="512" cy="166" r="15"/>
      <circle cx="253" cy="434" r="15"/>
      <circle cx="771" cy="434" r="15"/>
      <circle cx="337" cy="720" r="15"/>
      <circle cx="687" cy="720" r="15"/>
    </g>
    <path fill="url(#teal)" d="M363 325l67-40v180h164V285l67 40v323l-67 40V530H430v158l-67-40z"/>
  </g>

  <text x="512" y="690" fill="url(#title)" font-family="Avenir Next, Montserrat, Arial, sans-serif" font-size="72" font-weight="600" letter-spacing="28" text-anchor="middle">HERMES</text>
  <text x="512" y="746" fill="#23d5e5" font-family="Avenir Next, Montserrat, Arial, sans-serif" font-size="34" font-weight="500" letter-spacing="36" text-anchor="middle">COMPANION</text>

  <line x1="288" y1="790" x2="460" y2="790" stroke="#31506a" stroke-width="2"/>
  <circle cx="512" cy="790" r="12" fill="#25d5c9"/>
  <line x1="564" y1="790" x2="736" y2="790" stroke="#31506a" stroke-width="2"/>

  <text x="512" y="836" fill="#8aa7b9" font-family="Avenir Next, Montserrat, Arial, sans-serif" font-size="22" font-weight="500" letter-spacing="12" text-anchor="middle">CONNECT TO YOUR</text>
  <text x="512" y="874" fill="#86a9bb" font-family="Avenir Next, Montserrat, Arial, sans-serif" font-size="22" font-weight="500" letter-spacing="12" text-anchor="middle">SELF-HOSTED HERMES</text>
</svg>
